{"title":"Umphrey's McGee - 2000th Show Web Stream Rip HD 1080p  (2014-11-","uid":11415348,"size":6242036051,"categoryP":"video","categoryS":"music_videos","magnet":"?xt=urn:btih:7e2983f95255d16432948b77534d9f05ad299b31&amp;dn=Umphrey%27s+McGee+-+2000th+Show+Web+Stream+Rip+HD+1080p++%282014-11-&amp;tr=udp%3A%2F%2Ftracker.openbittorrent.com%3A80&amp;tr=udp%3A%2F%2Fopen.demonii.com%3A1337&amp;tr=udp%3A%2F%2Ftracker.coppersurfer.tk%3A6969&amp;tr=udp%3A%2F%2Fexodus.desync.com%3A6969","seeders":2,"leechers":0,"uploader":"NotHuman","files":-1,"time":1415570752,"description":"Umphrey's McGee\nNovember 8th, 2014\nMadison, WI @ The Orpheum - 2000th Show! \nTourGigs HD Live Stream Rip 1080p\n\n\nSource:\n\n1080p streaming TourGigs concert &gt; HDMI video output with composite RCA audio &gt; Game Capture HD &gt; MP4 &gt; HandBrake 0.9.9.5530 (cropping and compression) &gt; M4V  \n\nNotes:\n\nThis is a high quality 1080p rip of UM's 2000th show as streamed on TourGigs on November 8th, 2014.  Taken from the replay, which did not have any buffering issues.  Audio and video is almost perfect for the most part (there are a couple of occasions when buffering happens, but it's only for a split second).  \n\nSetlist:\n\nSET 1   All in Time &gt; The Linear -&gt; Walk the Proud Land, Uncommon, Hurt Bird Bath, Similar Skin*, All Things Ninja**, August -&gt; The Other Side of Things^ &gt; August\n\nSET 2   Mulche's Odyssey &gt; Kimble, Where is My Mind?^^, 40's Theme, Front Porch, 1,000 Places to See Before You Die# &gt; Bad Friday#, Slacker &gt; G-Song^ &gt; Slacker\n\nENCORE   It's About That Time# &gt; All in Time\n\n\n*w/ Muffburger Sandwich teases\n**w/ Jake on drums\n^one verse\n^^first time played (The Pixies)\n#w/Kevin Sinclair on sax\n\n\nScreenshots:\n\n\n\nMediaInfo:\n\nGeneral\nComplete name                            : D:uploadsUmphrey's McGee - 2014-11-08 - 2000th Show Web Stream HD 1080pUmphrey's  McGee - 2014-11-08 - Madison, WI (2000th Show) - Set 1.m4v\nFormat                                   : MPEG-4\nFormat profile                           : Base Media / Version 2\nCodec ID                                 : mp42\nFile size                                : 2.53 GiB\nDuration                                 : 1h 9mn\nOverall bit rate mode                    : Variable\nOverall bit rate                         : 5 206 Kbps\nMovie name                               : 2000th Show - Madison, WI - Set 1\nDescription                              : Description here.\nRecorded date                            : 2014-11-09\nEncoded date                             : UTC 2014-11-09 15:59:21\nTagged date                              : UTC 2014-11-09 17:56:51\nWriting application                      : HandBrake 0.9.9 2013052900\n\nVideo\nID                                       : 1\nFormat                                   : AVC\nFormat/Info                              : Advanced Video Codec\nFormat profile                           : &lt;a class=&quot;__cf_email__&quot; href=&quot;/cdn-cgi/l/email-protection&quot; data-cfemail=&quot;531b3a343b131f677d62&quot;&gt;[email&amp;#160;protected]&lt;/a&gt;&lt;script cf-hash='f9e31' type=&quot;text/javascript&quot;&gt;\n/* &lt;![CDATA[ */!function(){try{var t=&quot;currentScript&quot;in document?document.currentScript:function(){for(var t=document.getElementsByTagName(&quot;script&quot;),e=t.length;e--;)if(t[e].getAttribute(&quot;cf-hash&quot;))return t[e]}();if(t&amp;&amp;t.previousSibling){var e,r,n,i,c=t.previousSibling,a=c.getAttribute(&quot;data-cfemail&quot;);if(a){for(e=&quot;&quot;,r=parseInt(a.substr(0,2),16),n=2;a.length-n;n+=2)i=parseInt(a.substr(n,2),16)^r,e+=String.fromCharCode(i);e=document.createTextNode(e),c.parentNode.replaceChild(e,c)}}}catch(u){}}();/* ]]&gt; */&lt;/script&gt;\nFormat settings, CABAC                   : Yes\nFormat settings, ReFrames                : 4 frames\nCodec ID                                 : avc1\nCodec ID/Info                            : Advanced Video Coding\nDuration                                 : 1h 9mn\nDuration_LastFrame                       : 67ms\nBit rate                                 : 4 666 Kbps\nWidth                                    : 1 920 pixels\nHeight                                   : 1 082 pixels\nDisplay aspect ratio                     : 16:9\nOriginal display aspect ratio            : 16:9\nFrame rate mode                          : Constant\nFrame rate                               : 30.000 fps\nColor space                              : YUV\nChroma subsampling                       : 4:2:0\nBit depth                                : 8 bits\nScan type                                : Progressive\nBits/(Pixel*Frame)                       : 0.075\nStream size                              : 2.27 GiB (90%)\nWriting library                          : x264 core 130 r2273 b3065e6\nEncoding settings                        : cabac=1 / ref=4 / deblock=1:0:0 / analyse=0x3:0x113 / me=umh / subme=8 / psy=1 / psy_rd=1.00:0.00 / mixed_ref=1 / me_range=16 / chroma_me=1 / trellis=1 / 8x8dct=1 / cqm=0 / deadzone=21,11 / fast_pskip=1 / chroma_qp_offset=-2 / threads=12 / lookahead_threads=2 / sliced_threads=0 / nr=0 / decimate=1 / interlaced=0 / bluray_compat=0 / constrained_intra=0 / bframes=3 / b_pyramid=2 / b_adapt=2 / b_bias=0 / direct=3 / weightb=1 / open_gop=0 / weightp=2 / keyint=300 / keyint_min=30 / scenecut=40 / intra_refresh=0 / rc_lookahead=50 / rc=crf / mbtree=1 / crf=20.0 / qcomp=0.60 / qpmin=0 / qpmax=69 / qpstep=4 / vbv_maxrate=62500 / vbv_bufsize=78125 / crf_max=0.0 / nal_hrd=none / ip_ratio=1.40 / aq=1:1.00\nEncoded date                             : UTC 2014-11-09 15:59:21\nTagged date                              : UTC 2014-11-09 17:56:51\nColor primaries                          : BT.709\nTransfer characteristics                 : BT.709\nMatrix coefficients                      : BT.709\n\nAudio #1\nID                                       : 2\nFormat                                   : AAC\nFormat/Info                              : Advanced Audio Codec\nFormat profile                           : LC\nCodec ID                                 : 40\nDuration                                 : 1h 9mn\nBit rate mode                            : Variable\nBit rate                                 : 310 Kbps\nMaximum bit rate                         : 382 Kbps\nChannel(s)                               : 2 channels\nChannel positions                        : Front: L R\nSampling rate                            : 48.0 KHz\nCompression mode                         : Lossy\nStream size                              : 154 MiB (6%)\nLanguage                                 : English\nEncoded date                             : UTC 2014-11-09 15:59:21\nTagged date                              : UTC 2014-11-09 17:56:50\n\nAudio #2\nID                                       : 3\nFormat                                   : AC-3\nFormat/Info                              : Audio Coding 3\nMode extension                           : CM (complete main)\nFormat settings, Endianness              : Big\nCodec ID                                 : ac-3\nDuration                                 : 1h 9mn\nBit rate mode                            : Constant\nBit rate                                 : 224 Kbps\nChannel(s)                               : 2 channels\nChannel positions                        : Front: L R\nSampling rate                            : 48.0 KHz\nBit depth                                : 16 bits\nCompression mode                         : Lossy\nStream size                              : 111 MiB (4%)\nLanguage                                 : English\nEncoded date                             : UTC 2014-11-09 15:59:21\nTagged date                              : UTC 2014-11-09 17:56:50","torrent":{"xt":"urn:btih:7e2983f95255d16432948b77534d9f05ad299b31","amp;dn":"Umphrey%27s+McGee+-+2000th+Show+Web+Stream+Rip+HD+1080p++%282014-11-","amp;tr":["udp%3A%2F%2Ftracker.openbittorrent.com%3A80","udp%3A%2F%2Fopen.demonii.com%3A1337","udp%3A%2F%2Ftracker.coppersurfer.tk%3A6969","udp%3A%2F%2Fexodus.desync.com%3A6969"],"infoHash":"7e2983f95255d16432948b77534d9f05ad299b31","infoHashBuffer":{"type":"Buffer","data":[126,41,131,249,82,85,209,100,50,148,139,119,83,77,159,5,173,41,155,49]},"announce":[],"urlList":[]}}